<?xml version="1.0" encoding="utf-8"?>
<!-- Generator: Adobe Illustrator 24.0.1, SVG Export Plug-In . SVG Version: 6.00 Build 0)  -->
<svg version="1.1" id="Layer_1" xmlns="http://www.w3.org/2000/svg" xmlns:xlink="http://www.w3.org/1999/xlink" x="0px" y="0px"
	 viewBox="0 0 700 700" style="enable-background:new 0 0 700 700;" xml:space="preserve">
<g>
	<path d="M699.2,97.6c-6.2-44.5-31.1-67.1-51.3-81.9C625.4-0.7,596.7-4.6,571,5.6c-27.2,10.1-46.6,30.4-66.8,50.7
		c-23.3,25-48.2,48.4-72.3,72.6c-24.1-15.6-37.3-14-56.7,4.7c-11.7,11.7-23.3,22.6-34.2,34.3c-11.7,12.5-13.2,32.8-1.6,45.2
		c5.4,6.2,13.2,10.1,21,15.6c-8.5,7-12.4,10.1-15.5,13.3C257.1,330.1,168.6,419.1,80,507.2c-20.2,20.3-36.5,42.1-44.3,71
		c-3.9,15.6-13.2,30.4-21.8,43.7c-1.6,2.3-3.1,3.9-4.7,6.2c-13.2,17.9-12.4,42.1,3.1,57.7c0.8,0.8,1.6,1.6,1.6,1.6
		c15.5,15.6,38.8,16.4,56.7,3.9h0.8c13.2-9.4,25.6-21.8,40.4-24.2c32.6-7,58.3-23.4,80.8-46.8C282.8,533,370.6,444,459.1,355.9
		c3.9-3.9,7.8-7,14-13.3c3.9,5.5,6.2,10.1,10.1,14c17.1,17.9,35.7,17.2,53.6,0c9.3-9.4,18.6-18.7,28-28.1
		c22.5-22.6,28.7-33.5,8.5-60.9c18.6-18.7,37.3-36.7,55.9-55.4c25.6-26.5,55.9-49.2,67.6-86.6C700,116.4,700.8,107,699.2,97.6
		L699.2,97.6z M440.5,328.6c-90.9,91.3-181.8,182.6-272.7,273.1c-17.1,17.2-36.5,28.1-59.8,34.3c-17.9,4.7-33.4,17.2-49.7,25.7
		c-1.6,0.8-3.1,2.3-4.7,3.1c-4.7,3.9-11.7,3.1-15.5-0.8c-3.9-4.7-4.7-10.9-0.8-15.6c5.4-7,10.9-14,15.5-21.1
		c6.2-10.1,11.7-21.8,14-33.5c4.7-22.6,14.8-41.3,30.3-57l280.5-281.6c22.5,21.8,44.3,44.5,67.6,67.9
		C445.2,323.1,442.8,326.2,440.5,328.6L440.5,328.6z"/>
</g>
</svg>
